<svg xmlns="http://www.w3.org/2000/svg" viewBox="0 0 20.5359 20.5359" fill="none" focusable="false" aria-hidden="true">
  <path fill-rule="evenodd" clip-rule="evenodd" d="M9.17777 9.21683C9.71464 10.088 10.448 10.8214 11.3192 11.3582L12.141 10.8651C12.4994 10.6501 12.9538 10.6806 13.2802 10.9417L14.8753 12.2178C15.0986 12.3964 15.2347 12.6621 15.2493 12.9476C15.264 13.2332 15.1556 13.5113 14.9517 13.7118L14.2306 14.4208C13.2373 15.4003 11.7001 15.5662 10.5207 14.8211C8.59707 13.5769 6.95912 11.9389 5.71492 10.0153C4.96984 8.83591 5.13571 7.29863 6.11522 6.30533L6.82422 5.58422C7.02467 5.38034 7.30282 5.27202 7.58837 5.28662C7.87392 5.30123 8.13956 5.43736 8.31817 5.66063L9.59426 7.25575C9.85537 7.58215 9.88593 8.03651 9.67088 8.39493L9.17777 9.21683Z" stroke="currentColor" stroke-width="1.5" stroke-linecap="round" stroke-linejoin="round"/>
  <path fill-rule="evenodd" clip-rule="evenodd" d="M5.11814 18.2716L2.42114 18.7223C2.25295 18.7504 2.08156 18.6955 1.961 18.575C1.84043 18.4544 1.78554 18.283 1.81364 18.1148L2.26424 15.4177C-0.367463 11.3275 0.507977 5.91127 4.2942 2.85847C8.08042 -0.194324 13.5592 0.0986287 16.9982 3.53777C20.4373 6.97691 20.7302 12.4557 17.6774 16.2418C14.6245 20.028 9.20824 20.9034 5.11814 18.2716Z" stroke="currentColor" stroke-width="1.5" stroke-linecap="round" stroke-linejoin="round"/>
</svg>
